<?xml version="1.0" standalone="no"?>
<!DOCTYPE svg PUBLIC "-//W3C//DTD SVG 20010904//EN"
 "http://www.w3.org/TR/2001/REC-SVG-20010904/DTD/svg10.dtd">
<svg version="1.0" xmlns="http://www.w3.org/2000/svg"
 width="208.000000pt" height="208.000000pt" viewBox="0 0 208.000000 208.000000"
 preserveAspectRatio="xMidYMid meet">

<g transform="translate(0.000000,208.000000) scale(0.100000,-0.100000)"
fill="#000000" stroke="none">
<path d="M535 2031 c-85 -38 -137 -103 -181 -225 -21 -60 -23 -61 -80 -82
-167 -58 -244 -145 -244 -277 0 -152 145 -314 351 -392 38 -15 67 -31 64 -35
-3 -5 -22 -14 -43 -21 -158 -51 -307 -174 -358 -295 -24 -57 -23 -159 3 -209
40 -75 130 -144 230 -175 52 -16 57 -20 70 -60 8 -24 36 -70 62 -104 173 -222
464 -124 601 202 l28 64 26 -69 c72 -187 223 -329 363 -341 125 -10 228 72
287 229 l23 62 82 30 c194 70 279 233 201 388 -60 119 -199 229 -353 279 -46
15 -42 20 42 50 129 47 272 164 323 264 29 57 35 145 13 202 -33 86 -104 148
-219 190 l-60 21 -22 65 c-62 185 -198 279 -345 238 -60 -17 -155 -85 -204
-147 -48 -60 -103 -161 -124 -225 -7 -21 -16 -38 -19 -38 -4 0 -18 30 -31 68
-57 164 -169 298 -289 345 -56 22 -146 21 -197 -2z m200 -25 c110 -51 213
-180 269 -336 26 -71 27 -78 20 -220 -8 -165 -3 -200 26 -200 35 0 40 29 29
174 -12 158 -5 198 64 330 54 105 131 187 213 227 56 28 71 31 127 27 49 -3
75 -10 106 -31 65 -43 121 -138 145 -248 4 -21 13 -28 40 -32 46 -7 133 -50
178 -87 80 -66 103 -179 56 -281 -44 -96 -119 -165 -253 -232 -121 -60 -168
-68 -344 -60 -163 8 -191 3 -177 -32 6 -16 20 -17 179 -12 153 4 179 3 232
-15 162 -53 301 -160 350 -269 37 -83 33 -168 -10 -230 -39 -55 -112 -104
-183 -125 -82 -23 -81 -23 -106 -95 -29 -84 -76 -152 -128 -187 -37 -24 -51
-27 -122 -27 -100 0 -139 17 -217 95 -64 63 -114 145 -152 245 -25 68 -26 74
-20 238 l6 169 -24 -4 -24 -3 0 -175 c0 -167 -1 -178 -27 -237 -55 -130 -154
-244 -246 -286 -72 -33 -163 -30 -225 6 -58 34 -110 102 -135 177 -18 52 -20
55 -61 62 -102 17 -217 96 -252 173 -27 59 -25 144 6 210 49 102 205 218 363
270 43 14 73 16 145 11 151 -11 257 -10 269 2 8 8 7 16 -3 28 -12 15 -31 16
-172 11 -179 -7 -232 4 -357 69 -348 182 -359 502 -21 603 53 16 54 17 71 73
62 202 214 295 365 224z m325 -627 c0 -71 -4 -108 -10 -104 -5 3 -10 26 -10
49 0 51 11 166 16 166 2 0 4 -50 4 -111z m-267 -355 c20 -4 37 -10 37 -14 0
-10 -171 -13 -195 -4 -48 19 70 32 158 18z m658 -1 l34 -7 -45 -7 c-60 -8
-198 2 -155 12 42 9 126 10 166 2z m-414 -405 c-2 -29 -3 -6 -3 52 0 58 1 81
3 53 2 -29 2 -77 0 -105z"/>
</g>
</svg>
